<mxfile host="app.diagrams.net" modified="2024-05-09T12:52:23.633Z" agent="Mozilla/5.0 (Macintosh; Intel Mac OS X 10_15_7) AppleWebKit/605.1.15 (KHTML, like Gecko) Version/17.4.1 Safari/605.1.15" etag="JGC1Bw6VavT7TphJ-tcR" version="24.3.1" type="device">
  <diagram id="kKR0wjelQgatqh2Rh4qC" name="Page-1">
    <mxGraphModel dx="2541" dy="1889" grid="1" gridSize="10" guides="1" tooltips="1" connect="1" arrows="1" fold="1" page="1" pageScale="1" pageWidth="827" pageHeight="1169" math="0" shadow="0">
      <root>
        <mxCell id="0" />
        <mxCell id="1" parent="0" />
        <mxCell id="N_9k0_7t-n3FZSbv8x8E-1" value="" style="rounded=0;whiteSpace=wrap;html=1;fillColor=none;" vertex="1" parent="1">
          <mxGeometry x="-1124" y="-158" width="1480" height="480" as="geometry" />
        </mxCell>
        <mxCell id="N_9k0_7t-n3FZSbv8x8E-2" value="" style="shape=cube;whiteSpace=wrap;html=1;boundedLbl=1;backgroundOutline=1;darkOpacity=0.05;darkOpacity2=0.1;size=40;direction=east;flipH=1;fillColor=#ffe6cc;strokeColor=#d79b00;" vertex="1" parent="1">
          <mxGeometry x="-864" y="72.37" width="62" height="133.75" as="geometry" />
        </mxCell>
        <mxCell id="N_9k0_7t-n3FZSbv8x8E-3" value="" style="shape=cube;whiteSpace=wrap;html=1;boundedLbl=1;backgroundOutline=1;darkOpacity=0.05;darkOpacity2=0.1;size=7;direction=east;flipH=1;fillColor=#ffe6cc;strokeColor=#d79b00;" vertex="1" parent="1">
          <mxGeometry x="165.5" y="-145.05999999999995" width="23" height="20" as="geometry" />
        </mxCell>
        <mxCell id="N_9k0_7t-n3FZSbv8x8E-4" value="" style="shape=cube;whiteSpace=wrap;html=1;boundedLbl=1;backgroundOutline=1;darkOpacity=0.05;darkOpacity2=0.1;size=7;direction=east;flipH=1;fillColor=#f8cecc;strokeColor=#b85450;" vertex="1" parent="1">
          <mxGeometry x="185.5" y="-115.05999999999995" width="3" height="20" as="geometry" />
        </mxCell>
        <mxCell id="N_9k0_7t-n3FZSbv8x8E-5" value="" style="shape=cube;whiteSpace=wrap;html=1;boundedLbl=1;backgroundOutline=1;darkOpacity=0.05;darkOpacity2=0.1;size=7;direction=east;flipH=1;fillColor=#d5e8d4;strokeColor=#82b366;" vertex="1" parent="1">
          <mxGeometry x="185.5" y="-85.06" width="3" height="20" as="geometry" />
        </mxCell>
        <mxCell id="N_9k0_7t-n3FZSbv8x8E-6" value="3x3 Convolutional Layer&lt;br&gt;&lt;div style=&quot;text-align: center;&quot;&gt;&lt;span style=&quot;background-color: initial;&quot;&gt;with spectral norm&lt;/span&gt;&lt;/div&gt;" style="text;html=1;strokeColor=none;fillColor=none;align=left;verticalAlign=middle;whiteSpace=wrap;rounded=0;fontStyle=1" vertex="1" parent="1">
          <mxGeometry x="199.5" y="-148" width="146" height="23.88" as="geometry" />
        </mxCell>
        <mxCell id="N_9k0_7t-n3FZSbv8x8E-7" value="Batch Normalization" style="text;html=1;strokeColor=none;fillColor=none;align=left;verticalAlign=middle;whiteSpace=wrap;rounded=0;fontStyle=1" vertex="1" parent="1">
          <mxGeometry x="199.5" y="-118" width="138" height="23.88" as="geometry" />
        </mxCell>
        <mxCell id="N_9k0_7t-n3FZSbv8x8E-8" value="Leaky ReLU activation" style="text;html=1;strokeColor=none;fillColor=none;align=left;verticalAlign=middle;whiteSpace=wrap;rounded=0;fontStyle=1" vertex="1" parent="1">
          <mxGeometry x="199.5" y="-86.94" width="138" height="23.88" as="geometry" />
        </mxCell>
        <mxCell id="N_9k0_7t-n3FZSbv8x8E-9" value="" style="shape=cube;whiteSpace=wrap;html=1;boundedLbl=1;backgroundOutline=1;darkOpacity=0.05;darkOpacity2=0.1;size=40;direction=east;flipH=1;fillColor=#f5f5f5;strokeColor=#666666;fontColor=#333333;" vertex="1" parent="1">
          <mxGeometry x="-994" y="-76.75" width="50" height="133.75" as="geometry" />
        </mxCell>
        <mxCell id="N_9k0_7t-n3FZSbv8x8E-10" value="" style="shape=cube;whiteSpace=wrap;html=1;boundedLbl=1;backgroundOutline=1;darkOpacity=0.05;darkOpacity2=0.1;size=40;direction=east;flipH=1;fillColor=#f5f5f5;strokeColor=#666666;fontColor=#333333;" vertex="1" parent="1">
          <mxGeometry x="-1064.5" y="152" width="60" height="133.75" as="geometry" />
        </mxCell>
        <mxCell id="N_9k0_7t-n3FZSbv8x8E-11" value="64 x 64 x 18" style="text;html=1;strokeColor=none;fillColor=none;align=center;verticalAlign=middle;whiteSpace=wrap;rounded=0;fontStyle=1" vertex="1" parent="1">
          <mxGeometry x="-963" y="215.13" width="99" height="14" as="geometry" />
        </mxCell>
        <mxCell id="N_9k0_7t-n3FZSbv8x8E-12" value="64 x 64 x 2" style="text;html=1;strokeColor=none;fillColor=none;align=center;verticalAlign=middle;whiteSpace=wrap;rounded=0;fontStyle=1" vertex="1" parent="1">
          <mxGeometry x="-1084" y="94" width="99" height="14" as="geometry" />
        </mxCell>
        <mxCell id="N_9k0_7t-n3FZSbv8x8E-13" value="64 x 64 x 16" style="text;html=1;strokeColor=none;fillColor=none;align=center;verticalAlign=middle;whiteSpace=wrap;rounded=0;fontStyle=1" vertex="1" parent="1">
          <mxGeometry x="-1084" y="294" width="99" height="14" as="geometry" />
        </mxCell>
        <mxCell id="N_9k0_7t-n3FZSbv8x8E-14" value="" style="shape=cube;whiteSpace=wrap;html=1;boundedLbl=1;backgroundOutline=1;darkOpacity=0.05;darkOpacity2=0.1;size=40;direction=east;flipH=1;fillColor=#f5f5f5;strokeColor=#666666;fontColor=#333333;" vertex="1" parent="1">
          <mxGeometry x="-944" y="72.37" width="60" height="133.75" as="geometry" />
        </mxCell>
        <mxCell id="N_9k0_7t-n3FZSbv8x8E-15" style="edgeStyle=orthogonalEdgeStyle;rounded=0;orthogonalLoop=1;jettySize=auto;html=1;exitX=0;exitY=0;exitDx=0;exitDy=46.875;exitPerimeter=0;entryX=0;entryY=0;entryDx=60;entryDy=86.875;entryPerimeter=0;" edge="1" parent="1" source="N_9k0_7t-n3FZSbv8x8E-10" target="N_9k0_7t-n3FZSbv8x8E-14">
          <mxGeometry relative="1" as="geometry" />
        </mxCell>
        <mxCell id="N_9k0_7t-n3FZSbv8x8E-16" value="&lt;b&gt;global features&lt;/b&gt;" style="text;html=1;strokeColor=none;fillColor=none;align=center;verticalAlign=middle;whiteSpace=wrap;rounded=0;" vertex="1" parent="1">
          <mxGeometry x="-1084" y="-115.06" width="110" height="30" as="geometry" />
        </mxCell>
        <mxCell id="N_9k0_7t-n3FZSbv8x8E-17" value="&lt;b&gt;map features&lt;/b&gt;" style="text;html=1;strokeColor=none;fillColor=none;align=center;verticalAlign=middle;whiteSpace=wrap;rounded=0;" vertex="1" parent="1">
          <mxGeometry x="-1104" y="125.24000000000001" width="110" height="30" as="geometry" />
        </mxCell>
        <mxCell id="N_9k0_7t-n3FZSbv8x8E-18" value="&lt;b&gt;all features&lt;/b&gt;" style="text;html=1;strokeColor=none;fillColor=none;align=center;verticalAlign=middle;whiteSpace=wrap;rounded=0;" vertex="1" parent="1">
          <mxGeometry x="-969" y="43.379999999999995" width="110" height="30" as="geometry" />
        </mxCell>
        <mxCell id="N_9k0_7t-n3FZSbv8x8E-19" value="64 x 64 x 16" style="text;html=1;strokeColor=none;fillColor=none;align=center;verticalAlign=middle;whiteSpace=wrap;rounded=0;fontStyle=1" vertex="1" parent="1">
          <mxGeometry x="-882.5" y="215.13" width="99" height="14" as="geometry" />
        </mxCell>
        <mxCell id="N_9k0_7t-n3FZSbv8x8E-20" value="" style="shape=cube;whiteSpace=wrap;html=1;boundedLbl=1;backgroundOutline=1;darkOpacity=0.05;darkOpacity2=0.1;size=40;direction=east;flipH=1;fillColor=#f8cecc;strokeColor=#b85450;" vertex="1" parent="1">
          <mxGeometry x="-834" y="73.38" width="42" height="133.75" as="geometry" />
        </mxCell>
        <mxCell id="N_9k0_7t-n3FZSbv8x8E-21" style="edgeStyle=orthogonalEdgeStyle;rounded=0;orthogonalLoop=1;jettySize=auto;html=1;exitX=0;exitY=0;exitDx=0;exitDy=46.875;exitPerimeter=0;entryX=0;entryY=0.5;entryDx=0;entryDy=0;" edge="1" parent="1" source="N_9k0_7t-n3FZSbv8x8E-22" target="N_9k0_7t-n3FZSbv8x8E-37">
          <mxGeometry relative="1" as="geometry">
            <Array as="points">
              <mxPoint x="-783" y="132" />
            </Array>
          </mxGeometry>
        </mxCell>
        <mxCell id="N_9k0_7t-n3FZSbv8x8E-22" value="" style="shape=cube;whiteSpace=wrap;html=1;boundedLbl=1;backgroundOutline=1;darkOpacity=0.05;darkOpacity2=0.1;size=40;direction=east;flipH=1;fillColor=#d5e8d4;strokeColor=#82b366;" vertex="1" parent="1">
          <mxGeometry x="-825.5" y="72.37" width="42" height="133.75" as="geometry" />
        </mxCell>
        <mxCell id="N_9k0_7t-n3FZSbv8x8E-23" value="" style="shape=cube;whiteSpace=wrap;html=1;boundedLbl=1;backgroundOutline=1;darkOpacity=0.05;darkOpacity2=0.1;size=40;direction=east;flipH=1;fillColor=#ffe6cc;strokeColor=#d79b00;" vertex="1" parent="1">
          <mxGeometry x="-763" y="-128" width="62" height="133.75" as="geometry" />
        </mxCell>
        <mxCell id="N_9k0_7t-n3FZSbv8x8E-24" value="64 x 64 x 16" style="text;html=1;strokeColor=none;fillColor=none;align=center;verticalAlign=middle;whiteSpace=wrap;rounded=0;fontStyle=1" vertex="1" parent="1">
          <mxGeometry x="-781.5" y="14.759999999999991" width="99" height="14" as="geometry" />
        </mxCell>
        <mxCell id="N_9k0_7t-n3FZSbv8x8E-25" value="" style="shape=cube;whiteSpace=wrap;html=1;boundedLbl=1;backgroundOutline=1;darkOpacity=0.05;darkOpacity2=0.1;size=40;direction=east;flipH=1;fillColor=#f8cecc;strokeColor=#b85450;" vertex="1" parent="1">
          <mxGeometry x="-733" y="-126.99000000000001" width="42" height="133.75" as="geometry" />
        </mxCell>
        <mxCell id="N_9k0_7t-n3FZSbv8x8E-26" value="" style="shape=cube;whiteSpace=wrap;html=1;boundedLbl=1;backgroundOutline=1;darkOpacity=0.05;darkOpacity2=0.1;size=40;direction=east;flipH=1;fillColor=#d5e8d4;strokeColor=#82b366;" vertex="1" parent="1">
          <mxGeometry x="-724.5" y="-128" width="42" height="133.75" as="geometry" />
        </mxCell>
        <mxCell id="N_9k0_7t-n3FZSbv8x8E-27" value="" style="shape=cube;whiteSpace=wrap;html=1;boundedLbl=1;backgroundOutline=1;darkOpacity=0.05;darkOpacity2=0.1;size=40;direction=east;flipH=1;fillColor=#ffe6cc;strokeColor=#d79b00;" vertex="1" parent="1">
          <mxGeometry x="-682.5" y="-128" width="62" height="133.75" as="geometry" />
        </mxCell>
        <mxCell id="N_9k0_7t-n3FZSbv8x8E-28" value="64 x 64 x 16" style="text;html=1;strokeColor=none;fillColor=none;align=center;verticalAlign=middle;whiteSpace=wrap;rounded=0;fontStyle=1" vertex="1" parent="1">
          <mxGeometry x="-701" y="14.759999999999991" width="99" height="14" as="geometry" />
        </mxCell>
        <mxCell id="N_9k0_7t-n3FZSbv8x8E-29" value="" style="shape=cube;whiteSpace=wrap;html=1;boundedLbl=1;backgroundOutline=1;darkOpacity=0.05;darkOpacity2=0.1;size=40;direction=east;flipH=1;fillColor=#f8cecc;strokeColor=#b85450;" vertex="1" parent="1">
          <mxGeometry x="-652.5" y="-126.99000000000001" width="42" height="133.75" as="geometry" />
        </mxCell>
        <mxCell id="N_9k0_7t-n3FZSbv8x8E-30" value="" style="shape=cube;whiteSpace=wrap;html=1;boundedLbl=1;backgroundOutline=1;darkOpacity=0.05;darkOpacity2=0.1;size=40;direction=east;flipH=1;fillColor=#d5e8d4;strokeColor=#82b366;" vertex="1" parent="1">
          <mxGeometry x="-644" y="-128" width="42" height="133.75" as="geometry" />
        </mxCell>
        <mxCell id="N_9k0_7t-n3FZSbv8x8E-31" style="edgeStyle=orthogonalEdgeStyle;rounded=0;orthogonalLoop=1;jettySize=auto;html=1;exitX=0;exitY=0;exitDx=22;exitDy=20;exitPerimeter=0;entryX=0;entryY=0;entryDx=61.99999999999999;entryDy=86.875;entryPerimeter=0;" edge="1" parent="1" source="N_9k0_7t-n3FZSbv8x8E-22" target="N_9k0_7t-n3FZSbv8x8E-23">
          <mxGeometry relative="1" as="geometry">
            <Array as="points">
              <mxPoint x="-806" y="39" />
              <mxPoint x="-806" y="-41" />
            </Array>
          </mxGeometry>
        </mxCell>
        <mxCell id="N_9k0_7t-n3FZSbv8x8E-32" style="edgeStyle=orthogonalEdgeStyle;rounded=0;orthogonalLoop=1;jettySize=auto;html=1;exitX=0;exitY=0;exitDx=0;exitDy=46.875;exitPerimeter=0;" edge="1" parent="1" source="N_9k0_7t-n3FZSbv8x8E-33" target="N_9k0_7t-n3FZSbv8x8E-37">
          <mxGeometry relative="1" as="geometry">
            <Array as="points">
              <mxPoint x="-584" y="-68" />
              <mxPoint x="-564" y="-68" />
            </Array>
          </mxGeometry>
        </mxCell>
        <mxCell id="N_9k0_7t-n3FZSbv8x8E-33" value="" style="shape=cube;whiteSpace=wrap;html=1;boundedLbl=1;backgroundOutline=1;darkOpacity=0.05;darkOpacity2=0.1;size=40;direction=east;flipH=1;fillColor=#dae8fc;strokeColor=#6c8ebf;" vertex="1" parent="1">
          <mxGeometry x="-626.5" y="-127.99000000000001" width="42" height="133.75" as="geometry" />
        </mxCell>
        <mxCell id="N_9k0_7t-n3FZSbv8x8E-34" value="" style="shape=cube;whiteSpace=wrap;html=1;boundedLbl=1;backgroundOutline=1;darkOpacity=0.05;darkOpacity2=0.1;size=7;direction=east;flipH=1;fillColor=#dae8fc;strokeColor=#6c8ebf;" vertex="1" parent="1">
          <mxGeometry x="185.5" y="-49.18000000000001" width="3" height="20" as="geometry" />
        </mxCell>
        <mxCell id="N_9k0_7t-n3FZSbv8x8E-35" value="Squeeze-and-Excitation" style="text;html=1;strokeColor=none;fillColor=none;align=left;verticalAlign=middle;whiteSpace=wrap;rounded=0;fontStyle=1" vertex="1" parent="1">
          <mxGeometry x="199.5" y="-51.06" width="138" height="23.88" as="geometry" />
        </mxCell>
        <mxCell id="N_9k0_7t-n3FZSbv8x8E-36" style="edgeStyle=orthogonalEdgeStyle;rounded=0;orthogonalLoop=1;jettySize=auto;html=1;exitX=1;exitY=0.5;exitDx=0;exitDy=0;" edge="1" parent="1" source="N_9k0_7t-n3FZSbv8x8E-37" target="N_9k0_7t-n3FZSbv8x8E-38">
          <mxGeometry relative="1" as="geometry">
            <Array as="points">
              <mxPoint x="-514" y="132" />
              <mxPoint x="-514" y="132" />
            </Array>
          </mxGeometry>
        </mxCell>
        <mxCell id="N_9k0_7t-n3FZSbv8x8E-37" value="&lt;font style=&quot;font-size: 20px;&quot;&gt;+&lt;/font&gt;" style="ellipse;whiteSpace=wrap;html=1;aspect=fixed;" vertex="1" parent="1">
          <mxGeometry x="-584.5" y="111.75" width="40.25" height="40.25" as="geometry" />
        </mxCell>
        <mxCell id="N_9k0_7t-n3FZSbv8x8E-38" value="" style="shape=cube;whiteSpace=wrap;html=1;boundedLbl=1;backgroundOutline=1;darkOpacity=0.05;darkOpacity2=0.1;size=40;direction=east;flipH=1;fillColor=#ffe6cc;strokeColor=#d79b00;" vertex="1" parent="1">
          <mxGeometry x="-505.5" y="72.37" width="62" height="133.75" as="geometry" />
        </mxCell>
        <mxCell id="N_9k0_7t-n3FZSbv8x8E-39" value="64 x 64 x 16" style="text;html=1;strokeColor=none;fillColor=none;align=center;verticalAlign=middle;whiteSpace=wrap;rounded=0;fontStyle=1" vertex="1" parent="1">
          <mxGeometry x="-524" y="215.13" width="99" height="14" as="geometry" />
        </mxCell>
        <mxCell id="N_9k0_7t-n3FZSbv8x8E-40" value="" style="shape=cube;whiteSpace=wrap;html=1;boundedLbl=1;backgroundOutline=1;darkOpacity=0.05;darkOpacity2=0.1;size=40;direction=east;flipH=1;fillColor=#f8cecc;strokeColor=#b85450;" vertex="1" parent="1">
          <mxGeometry x="-475.5" y="73.38" width="42" height="133.75" as="geometry" />
        </mxCell>
        <mxCell id="N_9k0_7t-n3FZSbv8x8E-41" style="edgeStyle=orthogonalEdgeStyle;rounded=0;orthogonalLoop=1;jettySize=auto;html=1;exitX=0;exitY=0;exitDx=0;exitDy=46.875;exitPerimeter=0;entryX=0;entryY=0.5;entryDx=0;entryDy=0;" edge="1" parent="1" source="N_9k0_7t-n3FZSbv8x8E-42" target="N_9k0_7t-n3FZSbv8x8E-54">
          <mxGeometry relative="1" as="geometry">
            <Array as="points">
              <mxPoint x="-424.5" y="132" />
            </Array>
          </mxGeometry>
        </mxCell>
        <mxCell id="N_9k0_7t-n3FZSbv8x8E-42" value="" style="shape=cube;whiteSpace=wrap;html=1;boundedLbl=1;backgroundOutline=1;darkOpacity=0.05;darkOpacity2=0.1;size=40;direction=east;flipH=1;fillColor=#d5e8d4;strokeColor=#82b366;" vertex="1" parent="1">
          <mxGeometry x="-467" y="72.37" width="42" height="133.75" as="geometry" />
        </mxCell>
        <mxCell id="N_9k0_7t-n3FZSbv8x8E-43" value="" style="shape=cube;whiteSpace=wrap;html=1;boundedLbl=1;backgroundOutline=1;darkOpacity=0.05;darkOpacity2=0.1;size=40;direction=east;flipH=1;fillColor=#ffe6cc;strokeColor=#d79b00;" vertex="1" parent="1">
          <mxGeometry x="-404.5" y="-128" width="62" height="133.75" as="geometry" />
        </mxCell>
        <mxCell id="N_9k0_7t-n3FZSbv8x8E-44" value="64 x 64 x 16" style="text;html=1;strokeColor=none;fillColor=none;align=center;verticalAlign=middle;whiteSpace=wrap;rounded=0;fontStyle=1" vertex="1" parent="1">
          <mxGeometry x="-423" y="14.759999999999991" width="99" height="14" as="geometry" />
        </mxCell>
        <mxCell id="N_9k0_7t-n3FZSbv8x8E-45" value="" style="shape=cube;whiteSpace=wrap;html=1;boundedLbl=1;backgroundOutline=1;darkOpacity=0.05;darkOpacity2=0.1;size=40;direction=east;flipH=1;fillColor=#f8cecc;strokeColor=#b85450;" vertex="1" parent="1">
          <mxGeometry x="-374.5" y="-126.99000000000001" width="42" height="133.75" as="geometry" />
        </mxCell>
        <mxCell id="N_9k0_7t-n3FZSbv8x8E-46" value="" style="shape=cube;whiteSpace=wrap;html=1;boundedLbl=1;backgroundOutline=1;darkOpacity=0.05;darkOpacity2=0.1;size=40;direction=east;flipH=1;fillColor=#d5e8d4;strokeColor=#82b366;" vertex="1" parent="1">
          <mxGeometry x="-366" y="-128" width="42" height="133.75" as="geometry" />
        </mxCell>
        <mxCell id="N_9k0_7t-n3FZSbv8x8E-47" value="" style="shape=cube;whiteSpace=wrap;html=1;boundedLbl=1;backgroundOutline=1;darkOpacity=0.05;darkOpacity2=0.1;size=40;direction=east;flipH=1;fillColor=#ffe6cc;strokeColor=#d79b00;" vertex="1" parent="1">
          <mxGeometry x="-324" y="-128" width="62" height="133.75" as="geometry" />
        </mxCell>
        <mxCell id="N_9k0_7t-n3FZSbv8x8E-48" value="64 x 64 x 16" style="text;html=1;strokeColor=none;fillColor=none;align=center;verticalAlign=middle;whiteSpace=wrap;rounded=0;fontStyle=1" vertex="1" parent="1">
          <mxGeometry x="-342.5" y="14.759999999999991" width="99" height="14" as="geometry" />
        </mxCell>
        <mxCell id="N_9k0_7t-n3FZSbv8x8E-49" value="" style="shape=cube;whiteSpace=wrap;html=1;boundedLbl=1;backgroundOutline=1;darkOpacity=0.05;darkOpacity2=0.1;size=40;direction=east;flipH=1;fillColor=#f8cecc;strokeColor=#b85450;" vertex="1" parent="1">
          <mxGeometry x="-294" y="-126.99000000000001" width="42" height="133.75" as="geometry" />
        </mxCell>
        <mxCell id="N_9k0_7t-n3FZSbv8x8E-50" value="" style="shape=cube;whiteSpace=wrap;html=1;boundedLbl=1;backgroundOutline=1;darkOpacity=0.05;darkOpacity2=0.1;size=40;direction=east;flipH=1;fillColor=#d5e8d4;strokeColor=#82b366;" vertex="1" parent="1">
          <mxGeometry x="-285.5" y="-128" width="42" height="133.75" as="geometry" />
        </mxCell>
        <mxCell id="N_9k0_7t-n3FZSbv8x8E-51" style="edgeStyle=orthogonalEdgeStyle;rounded=0;orthogonalLoop=1;jettySize=auto;html=1;exitX=0;exitY=0;exitDx=22;exitDy=20;exitPerimeter=0;entryX=0;entryY=0;entryDx=61.99999999999999;entryDy=86.875;entryPerimeter=0;" edge="1" parent="1" source="N_9k0_7t-n3FZSbv8x8E-42" target="N_9k0_7t-n3FZSbv8x8E-43">
          <mxGeometry relative="1" as="geometry">
            <Array as="points">
              <mxPoint x="-447.5" y="39" />
              <mxPoint x="-447.5" y="-41" />
            </Array>
          </mxGeometry>
        </mxCell>
        <mxCell id="N_9k0_7t-n3FZSbv8x8E-52" style="edgeStyle=orthogonalEdgeStyle;rounded=0;orthogonalLoop=1;jettySize=auto;html=1;exitX=0;exitY=0;exitDx=0;exitDy=46.875;exitPerimeter=0;" edge="1" parent="1" source="N_9k0_7t-n3FZSbv8x8E-53" target="N_9k0_7t-n3FZSbv8x8E-54">
          <mxGeometry relative="1" as="geometry">
            <Array as="points">
              <mxPoint x="-225.5" y="-68" />
              <mxPoint x="-205.5" y="-68" />
            </Array>
          </mxGeometry>
        </mxCell>
        <mxCell id="N_9k0_7t-n3FZSbv8x8E-53" value="" style="shape=cube;whiteSpace=wrap;html=1;boundedLbl=1;backgroundOutline=1;darkOpacity=0.05;darkOpacity2=0.1;size=40;direction=east;flipH=1;fillColor=#dae8fc;strokeColor=#6c8ebf;" vertex="1" parent="1">
          <mxGeometry x="-268" y="-127.99000000000001" width="42" height="133.75" as="geometry" />
        </mxCell>
        <mxCell id="N_9k0_7t-n3FZSbv8x8E-54" value="&lt;font style=&quot;font-size: 20px;&quot;&gt;+&lt;/font&gt;" style="ellipse;whiteSpace=wrap;html=1;aspect=fixed;" vertex="1" parent="1">
          <mxGeometry x="-226" y="111.75" width="40.25" height="40.25" as="geometry" />
        </mxCell>
        <mxCell id="N_9k0_7t-n3FZSbv8x8E-55" style="edgeStyle=orthogonalEdgeStyle;rounded=0;orthogonalLoop=1;jettySize=auto;html=1;exitX=1;exitY=0.5;exitDx=0;exitDy=0;" edge="1" parent="1" target="N_9k0_7t-n3FZSbv8x8E-56">
          <mxGeometry relative="1" as="geometry">
            <mxPoint x="-185.75" y="132" as="sourcePoint" />
            <Array as="points">
              <mxPoint x="-155.75" y="132" />
              <mxPoint x="-155.75" y="132" />
            </Array>
          </mxGeometry>
        </mxCell>
        <mxCell id="N_9k0_7t-n3FZSbv8x8E-56" value="" style="shape=cube;whiteSpace=wrap;html=1;boundedLbl=1;backgroundOutline=1;darkOpacity=0.05;darkOpacity2=0.1;size=40;direction=east;flipH=1;fillColor=#ffe6cc;strokeColor=#d79b00;" vertex="1" parent="1">
          <mxGeometry x="-147.25" y="72.37" width="62" height="133.75" as="geometry" />
        </mxCell>
        <mxCell id="N_9k0_7t-n3FZSbv8x8E-57" value="64 x 64 x 16" style="text;html=1;strokeColor=none;fillColor=none;align=center;verticalAlign=middle;whiteSpace=wrap;rounded=0;fontStyle=1" vertex="1" parent="1">
          <mxGeometry x="-165.75" y="215.13" width="99" height="14" as="geometry" />
        </mxCell>
        <mxCell id="N_9k0_7t-n3FZSbv8x8E-58" value="" style="shape=cube;whiteSpace=wrap;html=1;boundedLbl=1;backgroundOutline=1;darkOpacity=0.05;darkOpacity2=0.1;size=40;direction=east;flipH=1;fillColor=#f8cecc;strokeColor=#b85450;" vertex="1" parent="1">
          <mxGeometry x="-117.25" y="73.38" width="42" height="133.75" as="geometry" />
        </mxCell>
        <mxCell id="N_9k0_7t-n3FZSbv8x8E-59" style="edgeStyle=orthogonalEdgeStyle;rounded=0;orthogonalLoop=1;jettySize=auto;html=1;exitX=0;exitY=0;exitDx=0;exitDy=46.875;exitPerimeter=0;entryX=0;entryY=0.5;entryDx=0;entryDy=0;" edge="1" parent="1" source="N_9k0_7t-n3FZSbv8x8E-60" target="N_9k0_7t-n3FZSbv8x8E-73">
          <mxGeometry relative="1" as="geometry">
            <Array as="points">
              <mxPoint x="-66.25" y="132" />
            </Array>
          </mxGeometry>
        </mxCell>
        <mxCell id="N_9k0_7t-n3FZSbv8x8E-60" value="" style="shape=cube;whiteSpace=wrap;html=1;boundedLbl=1;backgroundOutline=1;darkOpacity=0.05;darkOpacity2=0.1;size=40;direction=east;flipH=1;fillColor=#d5e8d4;strokeColor=#82b366;" vertex="1" parent="1">
          <mxGeometry x="-108.75" y="72.37" width="42" height="133.75" as="geometry" />
        </mxCell>
        <mxCell id="N_9k0_7t-n3FZSbv8x8E-61" value="" style="shape=cube;whiteSpace=wrap;html=1;boundedLbl=1;backgroundOutline=1;darkOpacity=0.05;darkOpacity2=0.1;size=40;direction=east;flipH=1;fillColor=#ffe6cc;strokeColor=#d79b00;" vertex="1" parent="1">
          <mxGeometry x="-46.25" y="-128" width="62" height="133.75" as="geometry" />
        </mxCell>
        <mxCell id="N_9k0_7t-n3FZSbv8x8E-62" value="64 x 64 x 16" style="text;html=1;strokeColor=none;fillColor=none;align=center;verticalAlign=middle;whiteSpace=wrap;rounded=0;fontStyle=1" vertex="1" parent="1">
          <mxGeometry x="-64.75" y="14.759999999999991" width="99" height="14" as="geometry" />
        </mxCell>
        <mxCell id="N_9k0_7t-n3FZSbv8x8E-63" value="" style="shape=cube;whiteSpace=wrap;html=1;boundedLbl=1;backgroundOutline=1;darkOpacity=0.05;darkOpacity2=0.1;size=40;direction=east;flipH=1;fillColor=#f8cecc;strokeColor=#b85450;" vertex="1" parent="1">
          <mxGeometry x="-16.25" y="-126.99000000000001" width="42" height="133.75" as="geometry" />
        </mxCell>
        <mxCell id="N_9k0_7t-n3FZSbv8x8E-64" value="" style="shape=cube;whiteSpace=wrap;html=1;boundedLbl=1;backgroundOutline=1;darkOpacity=0.05;darkOpacity2=0.1;size=40;direction=east;flipH=1;fillColor=#d5e8d4;strokeColor=#82b366;" vertex="1" parent="1">
          <mxGeometry x="-7.75" y="-128" width="42" height="133.75" as="geometry" />
        </mxCell>
        <mxCell id="N_9k0_7t-n3FZSbv8x8E-65" value="" style="shape=cube;whiteSpace=wrap;html=1;boundedLbl=1;backgroundOutline=1;darkOpacity=0.05;darkOpacity2=0.1;size=40;direction=east;flipH=1;fillColor=#ffe6cc;strokeColor=#d79b00;" vertex="1" parent="1">
          <mxGeometry x="34.25" y="-128" width="62" height="133.75" as="geometry" />
        </mxCell>
        <mxCell id="N_9k0_7t-n3FZSbv8x8E-66" value="64 x 64 x 16" style="text;html=1;strokeColor=none;fillColor=none;align=center;verticalAlign=middle;whiteSpace=wrap;rounded=0;fontStyle=1" vertex="1" parent="1">
          <mxGeometry x="15.75" y="14.759999999999991" width="99" height="14" as="geometry" />
        </mxCell>
        <mxCell id="N_9k0_7t-n3FZSbv8x8E-67" value="" style="shape=cube;whiteSpace=wrap;html=1;boundedLbl=1;backgroundOutline=1;darkOpacity=0.05;darkOpacity2=0.1;size=40;direction=east;flipH=1;fillColor=#f8cecc;strokeColor=#b85450;" vertex="1" parent="1">
          <mxGeometry x="64.25" y="-126.99000000000001" width="42" height="133.75" as="geometry" />
        </mxCell>
        <mxCell id="N_9k0_7t-n3FZSbv8x8E-68" value="" style="shape=cube;whiteSpace=wrap;html=1;boundedLbl=1;backgroundOutline=1;darkOpacity=0.05;darkOpacity2=0.1;size=40;direction=east;flipH=1;fillColor=#d5e8d4;strokeColor=#82b366;" vertex="1" parent="1">
          <mxGeometry x="72.75" y="-128" width="42" height="133.75" as="geometry" />
        </mxCell>
        <mxCell id="N_9k0_7t-n3FZSbv8x8E-69" style="edgeStyle=orthogonalEdgeStyle;rounded=0;orthogonalLoop=1;jettySize=auto;html=1;exitX=0;exitY=0;exitDx=22;exitDy=20;exitPerimeter=0;entryX=0;entryY=0;entryDx=61.99999999999999;entryDy=86.875;entryPerimeter=0;" edge="1" parent="1" source="N_9k0_7t-n3FZSbv8x8E-60" target="N_9k0_7t-n3FZSbv8x8E-61">
          <mxGeometry relative="1" as="geometry">
            <Array as="points">
              <mxPoint x="-89.25" y="39" />
              <mxPoint x="-89.25" y="-41" />
            </Array>
          </mxGeometry>
        </mxCell>
        <mxCell id="N_9k0_7t-n3FZSbv8x8E-70" style="edgeStyle=orthogonalEdgeStyle;rounded=0;orthogonalLoop=1;jettySize=auto;html=1;exitX=0;exitY=0;exitDx=0;exitDy=46.875;exitPerimeter=0;" edge="1" parent="1" source="N_9k0_7t-n3FZSbv8x8E-71" target="N_9k0_7t-n3FZSbv8x8E-73">
          <mxGeometry relative="1" as="geometry">
            <Array as="points">
              <mxPoint x="132.75" y="-68" />
              <mxPoint x="152.75" y="-68" />
            </Array>
          </mxGeometry>
        </mxCell>
        <mxCell id="N_9k0_7t-n3FZSbv8x8E-71" value="" style="shape=cube;whiteSpace=wrap;html=1;boundedLbl=1;backgroundOutline=1;darkOpacity=0.05;darkOpacity2=0.1;size=40;direction=east;flipH=1;fillColor=#dae8fc;strokeColor=#6c8ebf;" vertex="1" parent="1">
          <mxGeometry x="90.25" y="-127.99000000000001" width="42" height="133.75" as="geometry" />
        </mxCell>
        <mxCell id="N_9k0_7t-n3FZSbv8x8E-72" style="edgeStyle=orthogonalEdgeStyle;rounded=0;orthogonalLoop=1;jettySize=auto;html=1;exitX=1;exitY=0.5;exitDx=0;exitDy=0;" edge="1" parent="1" source="N_9k0_7t-n3FZSbv8x8E-73" target="N_9k0_7t-n3FZSbv8x8E-74">
          <mxGeometry relative="1" as="geometry">
            <Array as="points">
              <mxPoint x="196" y="132" />
              <mxPoint x="196" y="132" />
            </Array>
          </mxGeometry>
        </mxCell>
        <mxCell id="N_9k0_7t-n3FZSbv8x8E-73" value="&lt;font style=&quot;font-size: 20px;&quot;&gt;+&lt;/font&gt;" style="ellipse;whiteSpace=wrap;html=1;aspect=fixed;" vertex="1" parent="1">
          <mxGeometry x="132.25" y="111.75" width="40.25" height="40.25" as="geometry" />
        </mxCell>
        <mxCell id="N_9k0_7t-n3FZSbv8x8E-74" value="" style="shape=cube;whiteSpace=wrap;html=1;boundedLbl=1;backgroundOutline=1;darkOpacity=0.05;darkOpacity2=0.1;size=40;direction=east;flipH=1;fillColor=#ffe6cc;strokeColor=#d79b00;" vertex="1" parent="1">
          <mxGeometry x="204.5" y="72.37" width="62" height="133.75" as="geometry" />
        </mxCell>
        <mxCell id="N_9k0_7t-n3FZSbv8x8E-75" value="64 x 64 x 16" style="text;html=1;strokeColor=none;fillColor=none;align=center;verticalAlign=middle;whiteSpace=wrap;rounded=0;fontStyle=1" vertex="1" parent="1">
          <mxGeometry x="186" y="215.13" width="99" height="14" as="geometry" />
        </mxCell>
        <mxCell id="N_9k0_7t-n3FZSbv8x8E-76" value="" style="shape=cube;whiteSpace=wrap;html=1;boundedLbl=1;backgroundOutline=1;darkOpacity=0.05;darkOpacity2=0.1;size=40;direction=east;flipH=1;fillColor=#f8cecc;strokeColor=#b85450;" vertex="1" parent="1">
          <mxGeometry x="234.5" y="73.38" width="42" height="133.75" as="geometry" />
        </mxCell>
        <mxCell id="N_9k0_7t-n3FZSbv8x8E-77" value="" style="shape=cube;whiteSpace=wrap;html=1;boundedLbl=1;backgroundOutline=1;darkOpacity=0.05;darkOpacity2=0.1;size=40;direction=east;flipH=1;fillColor=#d5e8d4;strokeColor=#82b366;" vertex="1" parent="1">
          <mxGeometry x="243" y="72.37" width="42" height="133.75" as="geometry" />
        </mxCell>
        <mxCell id="N_9k0_7t-n3FZSbv8x8E-78" value="1 x 1 x&amp;nbsp;&lt;span style=&quot;background-color: initial;&quot;&gt;2&lt;/span&gt;" style="text;html=1;strokeColor=none;fillColor=none;align=center;verticalAlign=middle;whiteSpace=wrap;rounded=0;fontStyle=1" vertex="1" parent="1">
          <mxGeometry x="-1123" y="5.75" width="54.5" height="14" as="geometry" />
        </mxCell>
        <mxCell id="N_9k0_7t-n3FZSbv8x8E-79" value="&lt;br&gt;BROADCAST" style="shape=trapezoid;perimeter=trapezoidPerimeter;whiteSpace=wrap;html=1;fixedSize=1;rotation=-90;size=38;" vertex="1" parent="1">
          <mxGeometry x="-1094.5" y="-39.870000000000005" width="120" height="60" as="geometry" />
        </mxCell>
        <mxCell id="N_9k0_7t-n3FZSbv8x8E-80" style="edgeStyle=orthogonalEdgeStyle;rounded=0;orthogonalLoop=1;jettySize=auto;html=1;exitX=0;exitY=0;exitDx=20;exitDy=113.75;exitPerimeter=0;entryX=0;entryY=0;entryDx=60;entryDy=86.875;entryPerimeter=0;" edge="1" parent="1" source="N_9k0_7t-n3FZSbv8x8E-9" target="N_9k0_7t-n3FZSbv8x8E-14">
          <mxGeometry relative="1" as="geometry">
            <Array as="points">
              <mxPoint x="-964" y="159" />
            </Array>
          </mxGeometry>
        </mxCell>
        <mxCell id="N_9k0_7t-n3FZSbv8x8E-81" value="" style="shape=cube;whiteSpace=wrap;html=1;boundedLbl=1;backgroundOutline=1;darkOpacity=0.05;darkOpacity2=0.1;size=5;direction=east;flipH=1;fillColor=#f5f5f5;fontColor=#333333;strokeColor=#666666;" vertex="1" parent="1">
          <mxGeometry x="-1104" y="-17.49000000000001" width="16.5" height="15.24" as="geometry" />
        </mxCell>
      </root>
    </mxGraphModel>
  </diagram>
</mxfile>
